<svg width="32" height="27" viewBox="0 0 32 27" fill="none" xmlns="http://www.w3.org/2000/svg">
<path d="M1.04626 12.3172C0.989253 12.0868 0.984875 11.8463 1.03345 11.6139C1.08203 11.3816 1.18229 11.1635 1.32661 10.9762C1.47093 10.789 1.6555 10.6375 1.86631 10.5333C2.07712 10.4292 2.30861 10.375 2.54319 10.375H29.4572C29.6916 10.3751 29.9229 10.4292 30.1336 10.5333C30.3443 10.6374 30.5287 10.7887 30.673 10.9757C30.8173 11.1628 30.9176 11.3807 30.9663 11.6128C31.015 11.845 31.0109 12.0853 30.9541 12.3156L28.1593 23.6328C27.9924 24.3089 27.6071 24.9091 27.0647 25.338C26.5222 25.7669 25.8537 25.9999 25.1655 26H6.83493C6.14666 25.9999 5.47817 25.7669 4.93572 25.338C4.39326 24.9091 4.00796 24.3089 3.84105 23.6328L1.04626 12.3172Z" fill="#6AB7FF" stroke="#6AB7FF" stroke-width="2" stroke-linejoin="round"/>
<path d="M11.3704 16.625V19.75M20.6298 16.625V19.75M6.74072 10.375L12.9137 1M25.2595 10.375L19.0866 1" stroke="#6AB7FF" stroke-width="2" stroke-linecap="round"/>
</svg>
