<svg width="31" height="31" viewBox="0 0 31 31" fill="none" xmlns="http://www.w3.org/2000/svg">
<path d="M11.0248 19.125V22.75M19.9756 19.125V22.75M6.54943 11.875L12.5166 1M24.4509 11.875L18.4838 1M1.04471 14.1279C0.989612 13.8607 0.985379 13.5817 1.03234 13.3121C1.0793 13.0426 1.17622 12.7896 1.31572 12.5724C1.45523 12.3552 1.63365 12.1795 1.83744 12.0587C2.04122 11.9378 2.26499 11.875 2.49175 11.875H28.5086C28.7352 11.8751 28.9588 11.9379 29.1625 12.0586C29.3661 12.1794 29.5444 12.3549 29.6839 12.5719C29.8234 12.7888 29.9204 13.0416 29.9674 13.3109C30.0145 13.5802 30.0105 13.859 29.9557 14.1261L27.254 27.2541C27.0927 28.0383 26.7202 28.7345 26.1959 29.232C25.6715 29.7296 25.0253 29.9999 24.3599 30H6.64043C5.9751 29.9999 5.3289 29.7296 4.80452 29.232C4.28015 28.7345 3.90769 28.0383 3.74635 27.2541L1.04471 14.1279Z" stroke="black" stroke-width="2" stroke-linecap="round" stroke-linejoin="round"/>
</svg>
