<svg width="32" height="32" viewBox="0 0 32 32" fill="none" xmlns="http://www.w3.org/2000/svg">
<path d="M13.5 6.5V7H18.5V6.5C18.5 5.83696 18.2366 5.20107 17.7678 4.73223C17.2989 4.26339 16.663 4 16 4C15.337 4 14.7011 4.26339 14.2322 4.73223C13.7634 5.20107 13.5 5.83696 13.5 6.5ZM11.5 7V6.5C11.5 5.30653 11.9741 4.16193 12.818 3.31802C13.6619 2.47411 14.8065 2 16 2C17.1935 2 18.3381 2.47411 19.182 3.31802C20.0259 4.16193 20.5 5.30653 20.5 6.5V7H28C28.2652 7 28.5196 7.10536 28.7071 7.29289C28.8946 7.48043 29 7.73478 29 8C29 8.26522 28.8946 8.51957 28.7071 8.70711C28.5196 8.89464 28.2652 9 28 9H26.492L24.6 25.568C24.4605 26.7882 23.8768 27.9143 22.9601 28.7317C22.0435 29.5491 20.8581 30.0006 19.63 30H12.37C11.1419 30.0006 9.95647 29.5491 9.03985 28.7317C8.12323 27.9143 7.53952 26.7882 7.4 25.568L5.508 9H4C3.73478 9 3.48043 8.89464 3.29289 8.70711C3.10536 8.51957 3 8.26522 3 8C3 7.73478 3.10536 7.48043 3.29289 7.29289C3.48043 7.10536 3.73478 7 4 7H11.5ZM9.388 25.34C9.47149 26.0719 9.82135 26.7475 10.3709 27.2381C10.9205 27.7286 11.6313 27.9998 12.368 28H19.631C20.3677 27.9998 21.0785 27.7286 21.6281 27.2381C22.1776 26.7475 22.5275 26.0719 22.611 25.34L24.48 9H7.521L9.388 25.34ZM13 12.5C13.2652 12.5 13.5196 12.6054 13.7071 12.7929C13.8946 12.9804 14 13.2348 14 13.5V23.5C14 23.7652 13.8946 24.0196 13.7071 24.2071C13.5196 24.3946 13.2652 24.5 13 24.5C12.7348 24.5 12.4804 24.3946 12.2929 24.2071C12.1054 24.0196 12 23.7652 12 23.5V13.5C12 13.2348 12.1054 12.9804 12.2929 12.7929C12.4804 12.6054 12.7348 12.5 13 12.5ZM20 13.5C20 13.2348 19.8946 12.9804 19.7071 12.7929C19.5196 12.6054 19.2652 12.5 19 12.5C18.7348 12.5 18.4804 12.6054 18.2929 12.7929C18.1054 12.9804 18 13.2348 18 13.5V23.5C18 23.7652 18.1054 24.0196 18.2929 24.2071C18.4804 24.3946 18.7348 24.5 19 24.5C19.2652 24.5 19.5196 24.3946 19.7071 24.2071C19.8946 24.0196 20 23.7652 20 23.5V13.5Z" fill="#888888"/>
</svg>
