<svg width="39" height="33" viewBox="0 0 39 33" fill="none" xmlns="http://www.w3.org/2000/svg">
<path d="M1.33159 15.0806C1.26233 14.8042 1.25701 14.5155 1.31604 14.2367C1.37506 13.9579 1.49687 13.6962 1.67221 13.4715C1.84756 13.2468 2.07181 13.065 2.32794 12.94C2.58407 12.815 2.86533 12.75 3.15034 12.75H35.8503C36.1351 12.7501 36.4162 12.815 36.6722 12.9399C36.9281 13.0649 37.1522 13.2464 37.3276 13.4709C37.5029 13.6954 37.6247 13.9568 37.6839 14.2354C37.7431 14.514 37.738 14.8024 37.6691 15.0787L34.2735 28.6594C34.0707 29.4706 33.6025 30.1909 32.9435 30.7056C32.2844 31.2202 31.4722 31.4999 30.636 31.5H8.36472C7.52848 31.4999 6.71629 31.2202 6.05721 30.7056C5.39814 30.1909 4.93 29.4706 4.72722 28.6594L1.33159 15.0806Z" stroke="white" stroke-width="2" stroke-linejoin="round"/>
<path d="M13.875 20.25V24M25.125 20.25V24M8.25 12.75L15.75 1.5M30.75 12.75L23.25 1.5" stroke="white" stroke-width="2" stroke-linecap="round"/>
</svg>
