<svg width="29" height="27" viewBox="0 0 29 27" fill="none" xmlns="http://www.w3.org/2000/svg">
<mask id="path-1-inside-1_2410_337" fill="white">
<path fill-rule="evenodd" clip-rule="evenodd" d="M2.80834 14.4859L14.6776 26.3552L14.6777 26.3551L14.6778 26.3551L26.5469 14.486C29.7548 11.2781 29.7548 6.07712 26.5469 2.86926C23.3391 -0.33861 18.1381 -0.338606 14.9302 2.86926L14.6776 3.12189L14.425 2.86929C11.2171 -0.338564 6.01618 -0.338566 2.80833 2.86929C-0.399524 6.07714 -0.399516 11.2781 2.80834 14.4859Z"/>
</mask>
<path fill-rule="evenodd" clip-rule="evenodd" d="M2.80834 14.4859L14.6776 26.3552L14.6777 26.3551L14.6778 26.3551L26.5469 14.486C29.7548 11.2781 29.7548 6.07712 26.5469 2.86926C23.3391 -0.33861 18.1381 -0.338606 14.9302 2.86926L14.6776 3.12189L14.425 2.86929C11.2171 -0.338564 6.01618 -0.338566 2.80833 2.86929C-0.399524 6.07714 -0.399516 11.2781 2.80834 14.4859Z" fill="white"/>
<path d="M14.6776 26.3552L12.5563 28.4765L14.6776 30.5979L16.7989 28.4765L14.6776 26.3552ZM14.6777 26.3551L16.799 24.2338L14.6777 22.1125L12.5564 24.2338L14.6777 26.3551ZM14.6778 26.3551L12.5564 28.4764L14.6778 30.5978L16.7991 28.4764L14.6778 26.3551ZM14.6776 3.12189L12.5563 5.24321L14.6776 7.36453L16.7989 5.24321L14.6776 3.12189ZM16.7989 24.2339L4.92966 12.3646L0.687015 16.6073L12.5563 28.4765L16.7989 24.2339ZM12.5564 24.2338L12.5563 24.2339L16.7989 28.4765L16.799 28.4764L12.5564 24.2338ZM16.7991 24.2338L16.799 24.2338L12.5564 28.4764L12.5564 28.4764L16.7991 24.2338ZM24.4256 12.3646L12.5564 24.2338L16.7991 28.4764L28.6682 16.6073L24.4256 12.3646ZM24.4256 4.99058C26.4619 7.02687 26.4619 10.3284 24.4256 12.3646L28.6682 16.6073C33.0477 12.2278 33.0477 5.12737 28.6682 0.747935L24.4256 4.99058ZM17.0515 4.99058C19.0878 2.95429 22.3893 2.95429 24.4256 4.99058L28.6682 0.747935C24.2888 -3.63151 17.1883 -3.6315 12.8089 0.74794L17.0515 4.99058ZM16.7989 5.24321L17.0515 4.99058L12.8089 0.74794L12.5563 1.00056L16.7989 5.24321ZM12.3037 4.99061L12.5563 5.24321L16.7989 1.00056L16.5463 0.747966L12.3037 4.99061ZM4.92965 4.99061C6.96593 2.95433 10.2674 2.95433 12.3037 4.99061L16.5463 0.747966C12.1669 -3.63146 5.06643 -3.63146 0.687006 0.747965L4.92965 4.99061ZM4.92966 12.3646C2.89337 10.3283 2.89337 7.02688 4.92965 4.99061L0.687006 0.747965C-3.69242 5.12739 -3.69241 12.2278 0.687015 16.6073L4.92966 12.3646Z" fill="#6AB7FF" mask="url(#path-1-inside-1_2410_337)"/>
</svg>
