<svg width="41" height="37" viewBox="0 0 41 37" fill="none" xmlns="http://www.w3.org/2000/svg">
<mask id="path-1-inside-1_2526_2" fill="white">
<path fill-rule="evenodd" clip-rule="evenodd" d="M4.13173 19.8804L4.48528 20.234L20.7487 36.4975L37.0122 20.234L37.3657 19.8804C41.8568 15.3894 41.8568 8.10802 37.3657 3.61699C32.8747 -0.87404 25.5933 -0.87404 21.1023 3.61699L20.7487 3.97054L20.3952 3.61699C15.9042 -0.874039 8.62276 -0.87404 4.13173 3.61699C-0.359301 8.10802 -0.359301 15.3894 4.13173 19.8804Z"/>
</mask>
<path fill-rule="evenodd" clip-rule="evenodd" d="M4.13173 19.8804L4.48528 20.234L20.7487 36.4975L37.0122 20.234L37.3657 19.8804C41.8568 15.3894 41.8568 8.10802 37.3657 3.61699C32.8747 -0.87404 25.5933 -0.87404 21.1023 3.61699L20.7487 3.97054L20.3952 3.61699C15.9042 -0.874039 8.62276 -0.87404 4.13173 3.61699C-0.359301 8.10802 -0.359301 15.3894 4.13173 19.8804Z" fill="#6AB7FF"/>
<path d="M20.7487 36.4975L18.6274 38.6188L20.7487 40.7401L22.8701 38.6188L20.7487 36.4975ZM37.0122 20.234L34.8909 18.1127L37.0122 20.234ZM37.3657 19.8804L39.4871 22.0018L37.3657 19.8804ZM20.7487 3.97054L18.6274 6.09186L20.7487 8.21318L22.8701 6.09186L20.7487 3.97054ZM6.6066 18.1127L6.25305 17.7591L2.01041 22.0018L2.36396 22.3553L6.6066 18.1127ZM22.8701 34.3761L6.6066 18.1127L2.36396 22.3553L18.6274 38.6188L22.8701 34.3761ZM34.8909 18.1127L18.6274 34.3761L22.8701 38.6188L39.1335 22.3553L34.8909 18.1127ZM35.2444 17.7591L34.8909 18.1127L39.1335 22.3553L39.4871 22.0018L35.2444 17.7591ZM35.2444 5.73831C38.5639 9.05777 38.5639 14.4397 35.2444 17.7591L39.4871 22.0018C45.1497 16.3392 45.1497 7.15827 39.4871 1.49567L35.2444 5.73831ZM23.2236 5.73831C26.5431 2.41885 31.925 2.41885 35.2444 5.73831L39.4871 1.49567C33.8245 -4.16693 24.6436 -4.16693 18.981 1.49567L23.2236 5.73831ZM22.8701 6.09186L23.2236 5.73831L18.981 1.49567L18.6274 1.84922L22.8701 6.09186ZM18.2739 5.73831L18.6274 6.09186L22.8701 1.84922L22.5165 1.49567L18.2739 5.73831ZM6.25305 5.73831C9.57251 2.41885 14.9544 2.41885 18.2739 5.73831L22.5165 1.49567C16.8539 -4.16693 7.67301 -4.16693 2.01041 1.49567L6.25305 5.73831ZM6.25305 17.7591C2.93359 14.4397 2.93359 9.05777 6.25305 5.73831L2.01041 1.49567C-3.65219 7.15827 -3.65219 16.3392 2.01041 22.0018L6.25305 17.7591Z" fill="#6AB7FF" mask="url(#path-1-inside-1_2526_2)"/>
</svg>
