<svg width="186" height="53" viewBox="0 0 186 53" fill="none" xmlns="http://www.w3.org/2000/svg">
<path d="M123.5 41H121.46V32.27C121.46 30.45 121.17 29.11 120.59 28.25C120.01 27.39 119.15 26.96 118.01 26.96C116.83 26.96 115.77 27.38 114.83 28.22C113.91 29.06 113.26 30.14 112.88 31.46V41H110.84V32.27C110.84 30.43 110.56 29.09 110 28.25C109.44 27.39 108.58 26.96 107.42 26.96C106.26 26.96 105.21 27.37 104.27 28.19C103.33 29.01 102.67 30.09 102.29 31.43V41H100.25V25.37H102.11V28.91C102.77 27.69 103.61 26.75 104.63 26.09C105.67 25.43 106.82 25.1 108.08 25.1C109.38 25.1 110.43 25.47 111.23 26.21C112.03 26.95 112.52 27.92 112.7 29.12C113.42 27.8 114.28 26.8 115.28 26.12C116.3 25.44 117.45 25.1 118.73 25.1C119.61 25.1 120.35 25.26 120.95 25.58C121.57 25.9 122.06 26.36 122.42 26.96C122.8 27.54 123.07 28.25 123.23 29.09C123.41 29.91 123.5 30.83 123.5 31.85V41ZM126.558 36.5C126.558 35.52 126.838 34.68 127.398 33.98C127.958 33.26 128.728 32.71 129.708 32.33C130.708 31.93 131.858 31.73 133.158 31.73C133.918 31.73 134.708 31.79 135.528 31.91C136.348 32.03 137.078 32.21 137.718 32.45V31.13C137.718 29.81 137.328 28.76 136.548 27.98C135.768 27.2 134.688 26.81 133.308 26.81C132.468 26.81 131.638 26.97 130.818 27.29C130.018 27.59 129.178 28.04 128.298 28.64L127.518 27.2C128.538 26.5 129.538 25.98 130.518 25.64C131.498 25.28 132.498 25.1 133.518 25.1C135.438 25.1 136.958 25.65 138.078 26.75C139.198 27.85 139.758 29.37 139.758 31.31V38.54C139.758 38.82 139.818 39.03 139.938 39.17C140.058 39.29 140.248 39.36 140.508 39.38V41C140.288 41.02 140.098 41.04 139.938 41.06C139.778 41.08 139.658 41.08 139.578 41.06C139.078 41.04 138.698 40.88 138.438 40.58C138.178 40.28 138.038 39.96 138.018 39.62L137.988 38.48C137.288 39.38 136.378 40.08 135.258 40.58C134.138 41.06 132.998 41.3 131.838 41.3C130.838 41.3 129.928 41.09 129.108 40.67C128.308 40.23 127.678 39.65 127.218 38.93C126.778 38.19 126.558 37.38 126.558 36.5ZM137.028 37.7C137.248 37.42 137.418 37.15 137.538 36.89C137.658 36.63 137.718 36.4 137.718 36.2V33.92C137.038 33.66 136.328 33.46 135.588 33.32C134.868 33.18 134.138 33.11 133.398 33.11C131.938 33.11 130.758 33.4 129.858 33.98C128.958 34.56 128.508 35.35 128.508 36.35C128.508 36.93 128.658 37.48 128.958 38C129.258 38.5 129.698 38.92 130.278 39.26C130.858 39.58 131.538 39.74 132.318 39.74C133.298 39.74 134.208 39.55 135.048 39.17C135.908 38.79 136.568 38.3 137.028 37.7ZM155.326 41L149.536 32.99L146.206 36.11V41H144.166V19.1H146.206V33.92L155.056 25.4H157.306L150.916 31.79L157.546 41H155.326ZM166.004 41.3C164.884 41.3 163.844 41.09 162.884 40.67C161.924 40.23 161.094 39.64 160.394 38.9C159.694 38.14 159.144 37.27 158.744 36.29C158.364 35.31 158.174 34.26 158.174 33.14C158.174 31.68 158.504 30.34 159.164 29.12C159.844 27.9 160.774 26.93 161.954 26.21C163.134 25.47 164.474 25.1 165.974 25.1C167.514 25.1 168.854 25.47 169.994 26.21C171.154 26.95 172.064 27.93 172.724 29.15C173.384 30.35 173.714 31.67 173.714 33.11C173.714 33.27 173.714 33.43 173.714 33.59C173.714 33.73 173.704 33.84 173.684 33.92H160.304C160.404 35.04 160.714 36.04 161.234 36.92C161.774 37.78 162.464 38.47 163.304 38.99C164.164 39.49 165.094 39.74 166.094 39.74C167.114 39.74 168.074 39.48 168.974 38.96C169.894 38.44 170.534 37.76 170.894 36.92L172.664 37.4C172.344 38.14 171.854 38.81 171.194 39.41C170.534 40.01 169.754 40.48 168.854 40.82C167.974 41.14 167.024 41.3 166.004 41.3ZM160.244 32.45H171.794C171.714 31.31 171.404 30.31 170.864 29.45C170.344 28.59 169.654 27.92 168.794 27.44C167.954 26.94 167.024 26.69 166.004 26.69C164.984 26.69 164.054 26.94 163.214 27.44C162.374 27.92 161.684 28.6 161.144 29.48C160.624 30.34 160.324 31.33 160.244 32.45ZM184.661 27.17C183.301 27.21 182.101 27.59 181.061 28.31C180.041 29.03 179.321 30.02 178.901 31.28V41H176.861V25.37H178.781V29.12C179.321 28.02 180.031 27.13 180.911 26.45C181.811 25.77 182.761 25.39 183.761 25.31C183.961 25.29 184.131 25.28 184.271 25.28C184.431 25.28 184.561 25.29 184.661 25.31V27.17Z" fill="black"/>
<path d="M16.605 42.225C14.505 42.225 12.525 41.835 10.665 41.055C8.805 40.245 7.17 39.12 5.76 37.68C4.35 36.21 3.24 34.485 2.43 32.505C1.65 30.495 1.26 28.26 1.26 25.8C1.26 23.58 1.665 21.51 2.475 19.59C3.285 17.67 4.41 15.975 5.85 14.505C7.29 13.035 8.97 11.895 10.89 11.085C12.84 10.245 14.94 9.825 17.19 9.825C20.13 9.825 22.725 10.455 24.975 11.715C27.225 12.975 28.89 14.67 29.97 16.8L24.48 20.94C23.76 19.53 22.71 18.42 21.33 17.61C19.98 16.8 18.51 16.395 16.92 16.395C15.72 16.395 14.61 16.65 13.59 17.16C12.6 17.64 11.73 18.33 10.98 19.23C10.26 20.1 9.705 21.12 9.315 22.29C8.925 23.46 8.73 24.72 8.73 26.07C8.73 27.45 8.94 28.725 9.36 29.895C9.78 31.065 10.365 32.085 11.115 32.955C11.865 33.795 12.75 34.455 13.77 34.935C14.82 35.415 15.975 35.655 17.235 35.655C18.765 35.655 20.22 35.28 21.6 34.53C23.01 33.75 24.3 32.61 25.47 31.11V38.4C22.92 40.95 19.965 42.225 16.605 42.225ZM25.02 30.66H18.81V25.305H31.14V42H25.02V30.66ZM36.019 42V10.05H43.399V42H36.019ZM49.5102 42V10.05H71.2002V16.53H56.8902V23.415H68.6802V29.4H56.8902V42H49.5102ZM99.4753 16.53H89.7553V42H82.3753V16.53H72.6103V10.05H99.4753V16.53Z" fill="black"/>
</svg>
