<svg width="189" height="53" viewBox="0 0 189 53" fill="none" xmlns="http://www.w3.org/2000/svg">
<path d="M126.5 42H124.46V33.27C124.46 31.45 124.17 30.11 123.59 29.25C123.01 28.39 122.15 27.96 121.01 27.96C119.83 27.96 118.77 28.38 117.83 29.22C116.91 30.06 116.26 31.14 115.88 32.46V42H113.84V33.27C113.84 31.43 113.56 30.09 113 29.25C112.44 28.39 111.58 27.96 110.42 27.96C109.26 27.96 108.21 28.37 107.27 29.19C106.33 30.01 105.67 31.09 105.29 32.43V42H103.25V26.37H105.11V29.91C105.77 28.69 106.61 27.75 107.63 27.09C108.67 26.43 109.82 26.1 111.08 26.1C112.38 26.1 113.43 26.47 114.23 27.21C115.03 27.95 115.52 28.92 115.7 30.12C116.42 28.8 117.28 27.8 118.28 27.12C119.3 26.44 120.45 26.1 121.73 26.1C122.61 26.1 123.35 26.26 123.95 26.58C124.57 26.9 125.06 27.36 125.42 27.96C125.8 28.54 126.07 29.25 126.23 30.09C126.41 30.91 126.5 31.83 126.5 32.85V42ZM129.558 37.5C129.558 36.52 129.838 35.68 130.398 34.98C130.958 34.26 131.728 33.71 132.708 33.33C133.708 32.93 134.858 32.73 136.158 32.73C136.918 32.73 137.708 32.79 138.528 32.91C139.348 33.03 140.078 33.21 140.718 33.45V32.13C140.718 30.81 140.328 29.76 139.548 28.98C138.768 28.2 137.688 27.81 136.308 27.81C135.468 27.81 134.638 27.97 133.818 28.29C133.018 28.59 132.178 29.04 131.298 29.64L130.518 28.2C131.538 27.5 132.538 26.98 133.518 26.64C134.498 26.28 135.498 26.1 136.518 26.1C138.438 26.1 139.958 26.65 141.078 27.75C142.198 28.85 142.758 30.37 142.758 32.31V39.54C142.758 39.82 142.818 40.03 142.938 40.17C143.058 40.29 143.248 40.36 143.508 40.38V42C143.288 42.02 143.098 42.04 142.938 42.06C142.778 42.08 142.658 42.08 142.578 42.06C142.078 42.04 141.698 41.88 141.438 41.58C141.178 41.28 141.038 40.96 141.018 40.62L140.988 39.48C140.288 40.38 139.378 41.08 138.258 41.58C137.138 42.06 135.998 42.3 134.838 42.3C133.838 42.3 132.928 42.09 132.108 41.67C131.308 41.23 130.678 40.65 130.218 39.93C129.778 39.19 129.558 38.38 129.558 37.5ZM140.028 38.7C140.248 38.42 140.418 38.15 140.538 37.89C140.658 37.63 140.718 37.4 140.718 37.2V34.92C140.038 34.66 139.328 34.46 138.588 34.32C137.868 34.18 137.138 34.11 136.398 34.11C134.938 34.11 133.758 34.4 132.858 34.98C131.958 35.56 131.508 36.35 131.508 37.35C131.508 37.93 131.658 38.48 131.958 39C132.258 39.5 132.698 39.92 133.278 40.26C133.858 40.58 134.538 40.74 135.318 40.74C136.298 40.74 137.208 40.55 138.048 40.17C138.908 39.79 139.568 39.3 140.028 38.7ZM158.326 42L152.536 33.99L149.206 37.11V42H147.166V20.1H149.206V34.92L158.056 26.4H160.306L153.916 32.79L160.546 42H158.326ZM169.004 42.3C167.884 42.3 166.844 42.09 165.884 41.67C164.924 41.23 164.094 40.64 163.394 39.9C162.694 39.14 162.144 38.27 161.744 37.29C161.364 36.31 161.174 35.26 161.174 34.14C161.174 32.68 161.504 31.34 162.164 30.12C162.844 28.9 163.774 27.93 164.954 27.21C166.134 26.47 167.474 26.1 168.974 26.1C170.514 26.1 171.854 26.47 172.994 27.21C174.154 27.95 175.064 28.93 175.724 30.15C176.384 31.35 176.714 32.67 176.714 34.11C176.714 34.27 176.714 34.43 176.714 34.59C176.714 34.73 176.704 34.84 176.684 34.92H163.304C163.404 36.04 163.714 37.04 164.234 37.92C164.774 38.78 165.464 39.47 166.304 39.99C167.164 40.49 168.094 40.74 169.094 40.74C170.114 40.74 171.074 40.48 171.974 39.96C172.894 39.44 173.534 38.76 173.894 37.92L175.664 38.4C175.344 39.14 174.854 39.81 174.194 40.41C173.534 41.01 172.754 41.48 171.854 41.82C170.974 42.14 170.024 42.3 169.004 42.3ZM163.244 33.45H174.794C174.714 32.31 174.404 31.31 173.864 30.45C173.344 29.59 172.654 28.92 171.794 28.44C170.954 27.94 170.024 27.69 169.004 27.69C167.984 27.69 167.054 27.94 166.214 28.44C165.374 28.92 164.684 29.6 164.144 30.48C163.624 31.34 163.324 32.33 163.244 33.45ZM187.661 28.17C186.301 28.21 185.101 28.59 184.061 29.31C183.041 30.03 182.321 31.02 181.901 32.28V42H179.861V26.37H181.781V30.12C182.321 29.02 183.031 28.13 183.911 27.45C184.811 26.77 185.761 26.39 186.761 26.31C186.961 26.29 187.131 26.28 187.271 26.28C187.431 26.28 187.561 26.29 187.661 26.31V28.17Z" fill="white"/>
<path d="M16.605 42.225C14.505 42.225 12.525 41.835 10.665 41.055C8.805 40.245 7.17 39.12 5.76 37.68C4.35 36.21 3.24 34.485 2.43 32.505C1.65 30.495 1.26 28.26 1.26 25.8C1.26 23.58 1.665 21.51 2.475 19.59C3.285 17.67 4.41 15.975 5.85 14.505C7.29 13.035 8.97 11.895 10.89 11.085C12.84 10.245 14.94 9.825 17.19 9.825C20.13 9.825 22.725 10.455 24.975 11.715C27.225 12.975 28.89 14.67 29.97 16.8L24.48 20.94C23.76 19.53 22.71 18.42 21.33 17.61C19.98 16.8 18.51 16.395 16.92 16.395C15.72 16.395 14.61 16.65 13.59 17.16C12.6 17.64 11.73 18.33 10.98 19.23C10.26 20.1 9.705 21.12 9.315 22.29C8.925 23.46 8.73 24.72 8.73 26.07C8.73 27.45 8.94 28.725 9.36 29.895C9.78 31.065 10.365 32.085 11.115 32.955C11.865 33.795 12.75 34.455 13.77 34.935C14.82 35.415 15.975 35.655 17.235 35.655C18.765 35.655 20.22 35.28 21.6 34.53C23.01 33.75 24.3 32.61 25.47 31.11V38.4C22.92 40.95 19.965 42.225 16.605 42.225ZM25.02 30.66H18.81V25.305H31.14V42H25.02V30.66ZM36.019 42V10.05H43.399V42H36.019ZM49.5102 42V10.05H71.2002V16.53H56.8902V23.415H68.6802V29.4H56.8902V42H49.5102ZM99.4753 16.53H89.7553V42H82.3753V16.53H72.6103V10.05H99.4753V16.53Z" fill="white"/>
</svg>
