<svg width="30" height="30" viewBox="0 0 30 30" fill="none" xmlns="http://www.w3.org/2000/svg">
<path d="M3.30747 22.7027C12.283 18.6596 17.7129 18.7662 26.687 22.7111M2.7829 21.8423C1.64751 19.8198 1 17.4867 1 15C1 7.26801 7.26801 1 15 1C22.732 1 29 7.26801 29 15C29 17.4898 28.3509 19.8257 27.2128 21.85C22.6109 19.8165 18.8323 18.7271 15.0041 18.7114C11.1734 18.6957 7.39214 19.7551 2.7829 21.8423ZM14.9959 20.7114C18.3535 20.7252 21.7583 21.6535 26.0926 23.5425C23.5314 26.8634 19.5149 29 15 29C10.4807 29 6.46089 26.8593 3.89996 23.5329C8.23278 21.5984 11.638 20.6976 14.9959 20.7114Z" stroke="black" stroke-width="2"/>
<path d="M18.375 12.1875C18.375 14.2241 16.724 15.875 14.6875 15.875C12.6509 15.875 11 14.2241 11 12.1875C11 10.1509 12.6509 8.5 14.6875 8.5C16.724 8.5 18.375 10.1509 18.375 12.1875Z" stroke="black" stroke-width="2"/>
</svg>
