<svg width="38" height="35" viewBox="0 0 38 35" fill="none" xmlns="http://www.w3.org/2000/svg">
<path d="M19.0001 2.91663C10.2553 2.91663 3.16675 9.44558 3.16675 17.5C3.16675 25.5543 10.2553 32.0833 19.0001 32.0833C27.7448 32.0833 34.8334 25.5543 34.8334 17.5C34.8334 9.44558 27.7448 2.91663 19.0001 2.91663Z" stroke="black" stroke-width="1.5" stroke-linecap="round" stroke-linejoin="round"/>
<path d="M6.76245 26.7546C6.76245 26.7546 10.2917 22.6042 19 22.6042C27.7084 22.6042 31.2392 26.7546 31.2392 26.7546M19 17.5C20.2598 17.5 21.468 17.0391 22.3588 16.2186C23.2496 15.3981 23.75 14.2853 23.75 13.125C23.75 11.9647 23.2496 10.8519 22.3588 10.0314C21.468 9.21094 20.2598 8.75 19 8.75C17.7403 8.75 16.5321 9.21094 15.6413 10.0314C14.7505 10.8519 14.25 11.9647 14.25 13.125C14.25 14.2853 14.7505 15.3981 15.6413 16.2186C16.5321 17.0391 17.7403 17.5 19 17.5Z" stroke="black" stroke-width="1.5" stroke-linecap="round" stroke-linejoin="round"/>
</svg>
