<svg width="24" height="24" viewBox="0 0 24 24" fill="none" xmlns="http://www.w3.org/2000/svg">
<path d="M4.463 4.5C4.145 4.628 3.863 4.789 3.607 4.99C3.40633 5.15 3.22167 5.32433 3.053 5.513C2 6.693 2 8.463 2 12C2 15.537 2 17.306 3.053 18.487C3.22167 18.6763 3.40633 18.8503 3.607 19.009C4.862 20 6.741 20 10.5 20H13.5C16.492 20 18.257 20 19.5 19.5M8 4.016C8.728 4 9.554 4 10.5 4H13.5C17.259 4 19.138 4 20.392 4.99C20.5933 5.15 20.7783 5.32433 20.947 5.513C22 6.693 22 8.463 22 12C22 14.313 22 15.87 21.706 17M18.51 12H18.5M5.5 12H5.491" stroke="#222222" stroke-width="1.5" stroke-linecap="round" stroke-linejoin="round"/>
<path d="M13.744 13.742C13.5134 13.9808 13.2375 14.1712 12.9325 14.3023C12.6275 14.4333 12.2995 14.5022 11.9675 14.5051C11.6356 14.508 11.3064 14.4448 10.9991 14.3191C10.6919 14.1934 10.4127 14.0077 10.178 13.773C9.94328 13.5383 9.75765 13.2591 9.63195 12.9519C9.50624 12.6446 9.44299 12.3154 9.44587 11.9835C9.44876 11.6515 9.51772 11.3235 9.64875 11.0185C9.77977 10.7135 9.97022 10.4376 10.209 10.207M2 2L22 22" stroke="#222222" stroke-width="1.5" stroke-linecap="round" stroke-linejoin="round"/>
</svg>
