<svg width="45" height="45" viewBox="0 0 45 45" fill="none" xmlns="http://www.w3.org/2000/svg">
<path d="M45 22.5C45 34.9264 34.9264 45 22.5 45C10.0736 45 0 34.9264 0 22.5C0 10.0736 10.0736 0 22.5 0C34.9264 0 45 10.0736 45 22.5Z" fill="#D9D9D9"/>
<path fill-rule="evenodd" clip-rule="evenodd" d="M32.3515 15.4289L38.7155 21.7929C39.106 22.1834 39.106 22.8166 38.7155 23.2071L32.3515 29.5711C31.961 29.9616 31.3278 29.9616 30.9373 29.5711C30.5468 29.1806 30.5468 28.5474 30.9373 28.1569L35.5942 23.5H7.9917V21.5H35.5942L30.9373 16.8432C30.5468 16.4526 30.5468 15.8195 30.9373 15.4289C31.3278 15.0384 31.961 15.0384 32.3515 15.4289Z" fill="black"/>
</svg>
